<mxfile host="app.diagrams.net" modified="2021-09-01T02:48:10.610Z" agent="5.0 (Windows NT 10.0; Win64; x64) AppleWebKit/537.36 (KHTML, like Gecko) Chrome/93.0.4577.63 Safari/537.36" etag="x6tYCVosjzMe_-NWTBnd" version="15.0.3" type="github">
  <diagram id="C5RBs43oDa-KdzZeNtuy" name="Page-1">
    <mxGraphModel dx="2047" dy="2281" grid="1" gridSize="10" guides="1" tooltips="1" connect="1" arrows="1" fold="1" page="1" pageScale="1" pageWidth="827" pageHeight="1169" math="0" shadow="0">
      <root>
        <mxCell id="WIyWlLk6GJQsqaUBKTNV-0" />
        <mxCell id="WIyWlLk6GJQsqaUBKTNV-1" parent="WIyWlLk6GJQsqaUBKTNV-0" />
        <mxCell id="WIyWlLk6GJQsqaUBKTNV-2" value="" style="rounded=0;html=1;jettySize=auto;orthogonalLoop=1;fontSize=11;endArrow=block;endFill=0;endSize=8;strokeWidth=1;shadow=0;labelBackgroundColor=none;edgeStyle=orthogonalEdgeStyle;entryX=0.5;entryY=0;entryDx=0;entryDy=0;startArrow=none;" parent="WIyWlLk6GJQsqaUBKTNV-1" source="BwAWwdijLhmff7g70wNX-13" target="9fOPiK6Cyf-GxQi1RAT0-4" edge="1">
          <mxGeometry relative="1" as="geometry">
            <mxPoint x="640" y="210" as="targetPoint" />
            <Array as="points">
              <mxPoint x="800" y="940" />
              <mxPoint x="800" y="940" />
            </Array>
          </mxGeometry>
        </mxCell>
        <mxCell id="WIyWlLk6GJQsqaUBKTNV-3" value="PS_START" style="rounded=1;whiteSpace=wrap;html=1;fontSize=12;glass=0;strokeWidth=1;shadow=0;" parent="WIyWlLk6GJQsqaUBKTNV-1" vertex="1">
          <mxGeometry x="740" y="-360" width="120" height="40" as="geometry" />
        </mxCell>
        <mxCell id="9fOPiK6Cyf-GxQi1RAT0-7" style="edgeStyle=orthogonalEdgeStyle;rounded=0;orthogonalLoop=1;jettySize=auto;html=1;startArrow=none;" parent="WIyWlLk6GJQsqaUBKTNV-1" source="BwAWwdijLhmff7g70wNX-19" target="9fOPiK6Cyf-GxQi1RAT0-5" edge="1">
          <mxGeometry relative="1" as="geometry" />
        </mxCell>
        <mxCell id="9fOPiK6Cyf-GxQi1RAT0-0" value="PS_FUNCTION" style="rounded=1;whiteSpace=wrap;html=1;fontSize=12;glass=0;strokeWidth=1;shadow=0;" parent="WIyWlLk6GJQsqaUBKTNV-1" vertex="1">
          <mxGeometry x="470" y="440" width="120" height="40" as="geometry" />
        </mxCell>
        <mxCell id="9fOPiK6Cyf-GxQi1RAT0-11" style="edgeStyle=orthogonalEdgeStyle;rounded=0;orthogonalLoop=1;jettySize=auto;html=1;entryX=0.5;entryY=0;entryDx=0;entryDy=0;startArrow=none;" parent="WIyWlLk6GJQsqaUBKTNV-1" source="BwAWwdijLhmff7g70wNX-30" target="9fOPiK6Cyf-GxQi1RAT0-10" edge="1">
          <mxGeometry relative="1" as="geometry" />
        </mxCell>
        <mxCell id="9fOPiK6Cyf-GxQi1RAT0-1" value="PS_DOT1" style="rounded=1;whiteSpace=wrap;html=1;fontSize=12;glass=0;strokeWidth=1;shadow=0;" parent="WIyWlLk6GJQsqaUBKTNV-1" vertex="1">
          <mxGeometry x="-475" y="400" width="120" height="40" as="geometry" />
        </mxCell>
        <mxCell id="9fOPiK6Cyf-GxQi1RAT0-4" value="PS_FINISH" style="rounded=1;whiteSpace=wrap;html=1;fontSize=12;glass=0;strokeWidth=6;shadow=0;fillColor=#dae8fc;strokeColor=#6c8ebf;" parent="WIyWlLk6GJQsqaUBKTNV-1" vertex="1">
          <mxGeometry x="740" y="1220" width="120" height="40" as="geometry" />
        </mxCell>
        <mxCell id="9fOPiK6Cyf-GxQi1RAT0-9" style="edgeStyle=orthogonalEdgeStyle;rounded=0;orthogonalLoop=1;jettySize=auto;html=1;entryX=0.5;entryY=0;entryDx=0;entryDy=0;startArrow=none;" parent="WIyWlLk6GJQsqaUBKTNV-1" source="BwAWwdijLhmff7g70wNX-21" target="9fOPiK6Cyf-GxQi1RAT0-8" edge="1">
          <mxGeometry relative="1" as="geometry">
            <mxPoint x="530" y="575" as="targetPoint" />
          </mxGeometry>
        </mxCell>
        <mxCell id="9fOPiK6Cyf-GxQi1RAT0-5" value="PS_NON_UNARY1" style="rounded=1;whiteSpace=wrap;html=1;fontSize=12;glass=0;strokeWidth=1;shadow=0;" parent="WIyWlLk6GJQsqaUBKTNV-1" vertex="1">
          <mxGeometry x="470" y="640" width="120" height="40" as="geometry" />
        </mxCell>
        <mxCell id="9fOPiK6Cyf-GxQi1RAT0-8" value="PS_NON_UNARY1" style="rounded=1;whiteSpace=wrap;html=1;fontSize=12;glass=0;strokeWidth=1;shadow=0;" parent="WIyWlLk6GJQsqaUBKTNV-1" vertex="1">
          <mxGeometry x="470" y="790" width="120" height="40" as="geometry" />
        </mxCell>
        <mxCell id="9fOPiK6Cyf-GxQi1RAT0-10" value="PS_DOT2" style="rounded=1;whiteSpace=wrap;html=1;fontSize=12;glass=0;strokeWidth=1;shadow=0;" parent="WIyWlLk6GJQsqaUBKTNV-1" vertex="1">
          <mxGeometry x="-475" y="640" width="120" height="40" as="geometry" />
        </mxCell>
        <mxCell id="9fOPiK6Cyf-GxQi1RAT0-36" style="edgeStyle=orthogonalEdgeStyle;rounded=1;orthogonalLoop=1;jettySize=auto;html=1;exitX=0.5;exitY=1;exitDx=0;exitDy=0;startArrow=none;" parent="WIyWlLk6GJQsqaUBKTNV-1" source="BwAWwdijLhmff7g70wNX-26" edge="1">
          <mxGeometry relative="1" as="geometry">
            <Array as="points">
              <mxPoint x="-415" y="960" />
              <mxPoint x="800" y="960" />
            </Array>
            <mxPoint x="800" y="960" as="targetPoint" />
          </mxGeometry>
        </mxCell>
        <mxCell id="9fOPiK6Cyf-GxQi1RAT0-17" value="PS_UNARY" style="rounded=1;whiteSpace=wrap;html=1;fontSize=12;glass=0;strokeWidth=1;shadow=0;" parent="WIyWlLk6GJQsqaUBKTNV-1" vertex="1">
          <mxGeometry x="120" y="440" width="120" height="40" as="geometry" />
        </mxCell>
        <mxCell id="9fOPiK6Cyf-GxQi1RAT0-22" style="edgeStyle=orthogonalEdgeStyle;rounded=1;orthogonalLoop=1;jettySize=auto;html=1;startArrow=none;" parent="WIyWlLk6GJQsqaUBKTNV-1" target="9fOPiK6Cyf-GxQi1RAT0-1" edge="1" source="BwAWwdijLhmff7g70wNX-2">
          <mxGeometry relative="1" as="geometry">
            <mxPoint x="415" y="280" as="sourcePoint" />
            <mxPoint x="545" y="355" as="targetPoint" />
          </mxGeometry>
        </mxCell>
        <mxCell id="9fOPiK6Cyf-GxQi1RAT0-42" style="edgeStyle=orthogonalEdgeStyle;rounded=1;orthogonalLoop=1;jettySize=auto;html=1;entryX=1;entryY=0.5;entryDx=0;entryDy=0;strokeColor=#00FF00;startArrow=none;" parent="WIyWlLk6GJQsqaUBKTNV-1" target="9fOPiK6Cyf-GxQi1RAT0-1" edge="1" source="BwAWwdijLhmff7g70wNX-58">
          <mxGeometry relative="1" as="geometry">
            <mxPoint x="-105" y="290" as="targetPoint" />
            <mxPoint x="290" y="200" as="sourcePoint" />
            <Array as="points">
              <mxPoint x="-315" y="420" />
            </Array>
          </mxGeometry>
        </mxCell>
        <mxCell id="9fOPiK6Cyf-GxQi1RAT0-43" style="edgeStyle=orthogonalEdgeStyle;rounded=1;orthogonalLoop=1;jettySize=auto;html=1;entryX=1;entryY=0.5;entryDx=0;entryDy=0;strokeColor=#00FF00;startArrow=none;" parent="WIyWlLk6GJQsqaUBKTNV-1" source="BwAWwdijLhmff7g70wNX-72" target="9fOPiK6Cyf-GxQi1RAT0-17" edge="1">
          <mxGeometry relative="1" as="geometry">
            <Array as="points">
              <mxPoint x="280" y="460" />
            </Array>
          </mxGeometry>
        </mxCell>
        <mxCell id="9fOPiK6Cyf-GxQi1RAT0-44" style="edgeStyle=orthogonalEdgeStyle;rounded=1;orthogonalLoop=1;jettySize=auto;html=1;entryX=1;entryY=0.5;entryDx=0;entryDy=0;strokeColor=#00FF00;startArrow=none;" parent="WIyWlLk6GJQsqaUBKTNV-1" target="9fOPiK6Cyf-GxQi1RAT0-0" edge="1" source="BwAWwdijLhmff7g70wNX-64">
          <mxGeometry relative="1" as="geometry">
            <mxPoint x="280" y="200" as="sourcePoint" />
            <Array as="points">
              <mxPoint x="680" y="460" />
            </Array>
          </mxGeometry>
        </mxCell>
        <mxCell id="9fOPiK6Cyf-GxQi1RAT0-40" value="PS_SYMBOL" style="rounded=1;whiteSpace=wrap;html=1;fontSize=12;glass=0;strokeWidth=1;shadow=0;" parent="WIyWlLk6GJQsqaUBKTNV-1" vertex="1">
          <mxGeometry x="220" y="-60" width="120" height="40" as="geometry" />
        </mxCell>
        <mxCell id="9fOPiK6Cyf-GxQi1RAT0-56" value="" style="endArrow=classic;html=1;entryX=0.5;entryY=0;entryDx=0;entryDy=0;rounded=1;startArrow=none;" parent="WIyWlLk6GJQsqaUBKTNV-1" target="9fOPiK6Cyf-GxQi1RAT0-40" edge="1" source="BwAWwdijLhmff7g70wNX-0">
          <mxGeometry width="50" height="50" relative="1" as="geometry">
            <mxPoint x="280" y="-200" as="sourcePoint" />
            <mxPoint x="310" y="170" as="targetPoint" />
          </mxGeometry>
        </mxCell>
        <mxCell id="9fOPiK6Cyf-GxQi1RAT0-57" value="" style="endArrow=classic;html=1;strokeColor=#000000;entryX=0.5;entryY=0;entryDx=0;entryDy=0;startArrow=none;" parent="WIyWlLk6GJQsqaUBKTNV-1" target="9fOPiK6Cyf-GxQi1RAT0-17" edge="1" source="BwAWwdijLhmff7g70wNX-7">
          <mxGeometry width="50" height="50" relative="1" as="geometry">
            <mxPoint x="180" y="280" as="sourcePoint" />
            <mxPoint x="340" y="330" as="targetPoint" />
          </mxGeometry>
        </mxCell>
        <mxCell id="9fOPiK6Cyf-GxQi1RAT0-58" value="" style="endArrow=classic;html=1;strokeColor=#000000;startArrow=none;" parent="WIyWlLk6GJQsqaUBKTNV-1" target="9fOPiK6Cyf-GxQi1RAT0-0" edge="1" source="BwAWwdijLhmff7g70wNX-11">
          <mxGeometry width="50" height="50" relative="1" as="geometry">
            <mxPoint x="530" y="280" as="sourcePoint" />
            <mxPoint x="310" y="330" as="targetPoint" />
          </mxGeometry>
        </mxCell>
        <mxCell id="9fOPiK6Cyf-GxQi1RAT0-64" value="" style="endArrow=classic;html=1;strokeColor=#FF8000;startArrow=none;" parent="WIyWlLk6GJQsqaUBKTNV-1" source="BwAWwdijLhmff7g70wNX-34" edge="1">
          <mxGeometry width="50" height="50" relative="1" as="geometry">
            <mxPoint x="-515" y="680" as="sourcePoint" />
            <mxPoint x="40" y="1000" as="targetPoint" />
            <Array as="points">
              <mxPoint x="-615" y="1000" />
            </Array>
          </mxGeometry>
        </mxCell>
        <mxCell id="9fOPiK6Cyf-GxQi1RAT0-65" value="PS_COMMENT2" style="rounded=1;whiteSpace=wrap;html=1;fontSize=12;glass=0;strokeWidth=1;shadow=0;" parent="WIyWlLk6GJQsqaUBKTNV-1" vertex="1">
          <mxGeometry x="-20" y="1040" width="120" height="40" as="geometry" />
        </mxCell>
        <mxCell id="9fOPiK6Cyf-GxQi1RAT0-67" value="" style="endArrow=classic;html=1;strokeColor=#FF8000;exitX=0.5;exitY=1;exitDx=0;exitDy=0;startArrow=none;entryX=0.5;entryY=0;entryDx=0;entryDy=0;" parent="WIyWlLk6GJQsqaUBKTNV-1" source="BwAWwdijLhmff7g70wNX-74" edge="1" target="9fOPiK6Cyf-GxQi1RAT0-65">
          <mxGeometry width="50" height="50" relative="1" as="geometry">
            <mxPoint x="100" y="490" as="sourcePoint" />
            <mxPoint x="40" y="1000" as="targetPoint" />
            <Array as="points" />
          </mxGeometry>
        </mxCell>
        <mxCell id="9fOPiK6Cyf-GxQi1RAT0-73" value="" style="endArrow=classic;html=1;strokeColor=#000000;exitX=0.5;exitY=1;exitDx=0;exitDy=0;startArrow=none;" parent="WIyWlLk6GJQsqaUBKTNV-1" source="BwAWwdijLhmff7g70wNX-25" edge="1">
          <mxGeometry width="50" height="50" relative="1" as="geometry">
            <mxPoint x="130" y="820" as="sourcePoint" />
            <mxPoint x="180" y="960" as="targetPoint" />
          </mxGeometry>
        </mxCell>
        <mxCell id="9fOPiK6Cyf-GxQi1RAT0-74" value="" style="endArrow=classic;html=1;strokeColor=#000000;exitX=0.5;exitY=1;exitDx=0;exitDy=0;startArrow=none;" parent="WIyWlLk6GJQsqaUBKTNV-1" source="BwAWwdijLhmff7g70wNX-23" edge="1">
          <mxGeometry width="50" height="50" relative="1" as="geometry">
            <mxPoint x="130" y="820" as="sourcePoint" />
            <mxPoint x="530" y="960" as="targetPoint" />
          </mxGeometry>
        </mxCell>
        <mxCell id="9fOPiK6Cyf-GxQi1RAT0-76" value="" style="endArrow=classic;html=1;exitX=0.5;exitY=1;exitDx=0;exitDy=0;strokeColor=#FF8000;startArrow=none;" parent="WIyWlLk6GJQsqaUBKTNV-1" source="BwAWwdijLhmff7g70wNX-46" edge="1" target="9fOPiK6Cyf-GxQi1RAT0-4">
          <mxGeometry width="50" height="50" relative="1" as="geometry">
            <mxPoint x="130" y="600" as="sourcePoint" />
            <mxPoint x="-80" y="1000" as="targetPoint" />
            <Array as="points">
              <mxPoint x="40" y="1240" />
            </Array>
          </mxGeometry>
        </mxCell>
        <mxCell id="9fOPiK6Cyf-GxQi1RAT0-79" value="" style="endArrow=classic;html=1;strokeColor=#FF8000;startArrow=none;exitX=0.469;exitY=1.1;exitDx=0;exitDy=0;exitPerimeter=0;" parent="WIyWlLk6GJQsqaUBKTNV-1" source="BwAWwdijLhmff7g70wNX-55" edge="1">
          <mxGeometry width="50" height="50" relative="1" as="geometry">
            <mxPoint x="360" y="640" as="sourcePoint" />
            <mxPoint x="40" y="1000" as="targetPoint" />
            <Array as="points">
              <mxPoint x="363" y="1000" />
            </Array>
          </mxGeometry>
        </mxCell>
        <mxCell id="BwAWwdijLhmff7g70wNX-2" value="&lt;font style=&quot;font-size: 24px&quot;&gt;TIdent&lt;/font&gt;" style="text;html=1;align=center;verticalAlign=middle;resizable=0;points=[];autosize=1;strokeColor=none;" vertex="1" parent="WIyWlLk6GJQsqaUBKTNV-1">
          <mxGeometry x="-455" y="340" width="80" height="20" as="geometry" />
        </mxCell>
        <mxCell id="BwAWwdijLhmff7g70wNX-3" value="" style="edgeStyle=orthogonalEdgeStyle;rounded=1;orthogonalLoop=1;jettySize=auto;html=1;endArrow=none;" edge="1" parent="WIyWlLk6GJQsqaUBKTNV-1" target="BwAWwdijLhmff7g70wNX-2">
          <mxGeometry relative="1" as="geometry">
            <mxPoint x="800" y="280" as="sourcePoint" />
            <mxPoint x="-180" y="440" as="targetPoint" />
          </mxGeometry>
        </mxCell>
        <mxCell id="BwAWwdijLhmff7g70wNX-0" value="&lt;font style=&quot;font-size: 24px&quot;&gt;TSymbol&lt;/font&gt;" style="text;html=1;align=center;verticalAlign=middle;resizable=0;points=[];autosize=1;strokeColor=none;" vertex="1" parent="WIyWlLk6GJQsqaUBKTNV-1">
          <mxGeometry x="225" y="-140" width="110" height="20" as="geometry" />
        </mxCell>
        <mxCell id="BwAWwdijLhmff7g70wNX-6" value="" style="endArrow=none;html=1;entryX=0.5;entryY=0;entryDx=0;entryDy=0;rounded=1;" edge="1" parent="WIyWlLk6GJQsqaUBKTNV-1" target="BwAWwdijLhmff7g70wNX-0">
          <mxGeometry width="50" height="50" relative="1" as="geometry">
            <mxPoint x="800" y="-200" as="sourcePoint" />
            <mxPoint x="280" y="-120" as="targetPoint" />
            <Array as="points">
              <mxPoint x="280" y="-200" />
            </Array>
          </mxGeometry>
        </mxCell>
        <mxCell id="BwAWwdijLhmff7g70wNX-7" value="&lt;font style=&quot;font-size: 24px&quot;&gt;TIdent&lt;/font&gt;" style="text;html=1;align=center;verticalAlign=middle;resizable=0;points=[];autosize=1;strokeColor=none;" vertex="1" parent="WIyWlLk6GJQsqaUBKTNV-1">
          <mxGeometry x="140" y="340" width="80" height="20" as="geometry" />
        </mxCell>
        <mxCell id="BwAWwdijLhmff7g70wNX-8" value="" style="endArrow=none;html=1;strokeColor=#000000;entryX=0.5;entryY=0;entryDx=0;entryDy=0;" edge="1" parent="WIyWlLk6GJQsqaUBKTNV-1" target="BwAWwdijLhmff7g70wNX-7">
          <mxGeometry width="50" height="50" relative="1" as="geometry">
            <mxPoint x="180" y="280" as="sourcePoint" />
            <mxPoint x="180" y="450" as="targetPoint" />
          </mxGeometry>
        </mxCell>
        <mxCell id="BwAWwdijLhmff7g70wNX-11" value="&lt;font style=&quot;font-size: 24px&quot;&gt;TIdent&lt;/font&gt;" style="text;html=1;align=center;verticalAlign=middle;resizable=0;points=[];autosize=1;strokeColor=none;" vertex="1" parent="WIyWlLk6GJQsqaUBKTNV-1">
          <mxGeometry x="490" y="340" width="80" height="20" as="geometry" />
        </mxCell>
        <mxCell id="BwAWwdijLhmff7g70wNX-12" value="" style="endArrow=none;html=1;strokeColor=#000000;" edge="1" parent="WIyWlLk6GJQsqaUBKTNV-1" target="BwAWwdijLhmff7g70wNX-11">
          <mxGeometry width="50" height="50" relative="1" as="geometry">
            <mxPoint x="530" y="280" as="sourcePoint" />
            <mxPoint x="530" y="440" as="targetPoint" />
          </mxGeometry>
        </mxCell>
        <mxCell id="BwAWwdijLhmff7g70wNX-13" value="&lt;font style=&quot;font-size: 24px&quot;&gt;TEmpty&lt;/font&gt;" style="text;html=1;align=center;verticalAlign=middle;resizable=0;points=[];autosize=1;strokeColor=none;" vertex="1" parent="WIyWlLk6GJQsqaUBKTNV-1">
          <mxGeometry x="750" y="-140" width="100" height="20" as="geometry" />
        </mxCell>
        <mxCell id="BwAWwdijLhmff7g70wNX-14" value="" style="rounded=0;html=1;jettySize=auto;orthogonalLoop=1;fontSize=11;endArrow=none;endFill=0;endSize=8;strokeWidth=1;shadow=0;labelBackgroundColor=none;edgeStyle=orthogonalEdgeStyle;entryX=0.5;entryY=0;entryDx=0;entryDy=0;" edge="1" parent="WIyWlLk6GJQsqaUBKTNV-1" source="WIyWlLk6GJQsqaUBKTNV-3" target="BwAWwdijLhmff7g70wNX-13">
          <mxGeometry relative="1" as="geometry">
            <mxPoint x="650" y="960" as="targetPoint" />
            <Array as="points" />
            <mxPoint x="650" y="-160" as="sourcePoint" />
          </mxGeometry>
        </mxCell>
        <mxCell id="BwAWwdijLhmff7g70wNX-19" value="&lt;font style=&quot;font-size: 24px&quot;&gt;THex/TInt/TIdent&lt;/font&gt;" style="text;html=1;align=center;verticalAlign=middle;resizable=0;points=[];autosize=1;strokeColor=none;" vertex="1" parent="WIyWlLk6GJQsqaUBKTNV-1">
          <mxGeometry x="430" y="580" width="200" height="20" as="geometry" />
        </mxCell>
        <mxCell id="BwAWwdijLhmff7g70wNX-20" value="" style="edgeStyle=orthogonalEdgeStyle;rounded=0;orthogonalLoop=1;jettySize=auto;html=1;endArrow=none;" edge="1" parent="WIyWlLk6GJQsqaUBKTNV-1" source="9fOPiK6Cyf-GxQi1RAT0-0" target="BwAWwdijLhmff7g70wNX-19">
          <mxGeometry relative="1" as="geometry">
            <mxPoint x="530" y="480" as="sourcePoint" />
            <mxPoint x="530" y="630" as="targetPoint" />
          </mxGeometry>
        </mxCell>
        <mxCell id="BwAWwdijLhmff7g70wNX-21" value="&lt;font style=&quot;font-size: 24px&quot;&gt;TAddress&lt;/font&gt;" style="text;html=1;align=center;verticalAlign=middle;resizable=0;points=[];autosize=1;strokeColor=none;" vertex="1" parent="WIyWlLk6GJQsqaUBKTNV-1">
          <mxGeometry x="470" y="740" width="120" height="20" as="geometry" />
        </mxCell>
        <mxCell id="BwAWwdijLhmff7g70wNX-22" value="" style="edgeStyle=orthogonalEdgeStyle;rounded=0;orthogonalLoop=1;jettySize=auto;html=1;entryX=0.5;entryY=0;entryDx=0;entryDy=0;endArrow=none;" edge="1" parent="WIyWlLk6GJQsqaUBKTNV-1" source="9fOPiK6Cyf-GxQi1RAT0-5" target="BwAWwdijLhmff7g70wNX-21">
          <mxGeometry relative="1" as="geometry">
            <mxPoint x="530" y="740" as="targetPoint" />
            <mxPoint x="530" y="670" as="sourcePoint" />
          </mxGeometry>
        </mxCell>
        <mxCell id="BwAWwdijLhmff7g70wNX-23" value="&lt;font style=&quot;font-size: 24px&quot;&gt;TEmpty&lt;/font&gt;" style="text;html=1;align=center;verticalAlign=middle;resizable=0;points=[];autosize=1;strokeColor=none;" vertex="1" parent="WIyWlLk6GJQsqaUBKTNV-1">
          <mxGeometry x="480" y="860" width="100" height="20" as="geometry" />
        </mxCell>
        <mxCell id="BwAWwdijLhmff7g70wNX-24" value="" style="endArrow=none;html=1;strokeColor=#000000;exitX=0.5;exitY=1;exitDx=0;exitDy=0;" edge="1" parent="WIyWlLk6GJQsqaUBKTNV-1" source="9fOPiK6Cyf-GxQi1RAT0-8" target="BwAWwdijLhmff7g70wNX-23">
          <mxGeometry width="50" height="50" relative="1" as="geometry">
            <mxPoint x="530" y="830" as="sourcePoint" />
            <mxPoint x="530" y="920" as="targetPoint" />
          </mxGeometry>
        </mxCell>
        <mxCell id="BwAWwdijLhmff7g70wNX-26" value="&lt;font style=&quot;font-size: 24px&quot;&gt;TEmpty&lt;/font&gt;" style="text;html=1;align=center;verticalAlign=middle;resizable=0;points=[];autosize=1;strokeColor=none;" vertex="1" parent="WIyWlLk6GJQsqaUBKTNV-1">
          <mxGeometry x="-465" y="740" width="100" height="20" as="geometry" />
        </mxCell>
        <mxCell id="BwAWwdijLhmff7g70wNX-27" value="" style="edgeStyle=orthogonalEdgeStyle;rounded=1;orthogonalLoop=1;jettySize=auto;html=1;entryX=0.5;entryY=0;entryDx=0;entryDy=0;exitX=0.5;exitY=1;exitDx=0;exitDy=0;endArrow=none;" edge="1" parent="WIyWlLk6GJQsqaUBKTNV-1" source="9fOPiK6Cyf-GxQi1RAT0-10" target="BwAWwdijLhmff7g70wNX-26">
          <mxGeometry relative="1" as="geometry">
            <Array as="points" />
            <mxPoint x="-415" y="680" as="sourcePoint" />
            <mxPoint x="505" y="1050" as="targetPoint" />
          </mxGeometry>
        </mxCell>
        <mxCell id="BwAWwdijLhmff7g70wNX-25" value="&lt;font style=&quot;font-size: 24px&quot;&gt;TEmpty&lt;/font&gt;" style="text;html=1;align=center;verticalAlign=middle;resizable=0;points=[];autosize=1;strokeColor=none;" vertex="1" parent="WIyWlLk6GJQsqaUBKTNV-1">
          <mxGeometry x="130" y="580" width="100" height="20" as="geometry" />
        </mxCell>
        <mxCell id="BwAWwdijLhmff7g70wNX-28" value="" style="endArrow=none;html=1;strokeColor=#000000;exitX=0.5;exitY=1;exitDx=0;exitDy=0;" edge="1" parent="WIyWlLk6GJQsqaUBKTNV-1" source="9fOPiK6Cyf-GxQi1RAT0-17" target="BwAWwdijLhmff7g70wNX-25">
          <mxGeometry width="50" height="50" relative="1" as="geometry">
            <mxPoint x="180" y="490" as="sourcePoint" />
            <mxPoint x="180" y="920" as="targetPoint" />
          </mxGeometry>
        </mxCell>
        <mxCell id="BwAWwdijLhmff7g70wNX-30" value="&lt;font style=&quot;font-size: 24px&quot;&gt;TInt/THex&lt;/font&gt;" style="text;html=1;align=center;verticalAlign=middle;resizable=0;points=[];autosize=1;strokeColor=none;" vertex="1" parent="WIyWlLk6GJQsqaUBKTNV-1">
          <mxGeometry x="-475" y="580" width="120" height="20" as="geometry" />
        </mxCell>
        <mxCell id="BwAWwdijLhmff7g70wNX-33" value="" style="edgeStyle=orthogonalEdgeStyle;rounded=0;orthogonalLoop=1;jettySize=auto;html=1;entryX=0.5;entryY=0;entryDx=0;entryDy=0;endArrow=none;" edge="1" parent="WIyWlLk6GJQsqaUBKTNV-1" source="9fOPiK6Cyf-GxQi1RAT0-1" target="BwAWwdijLhmff7g70wNX-30">
          <mxGeometry relative="1" as="geometry">
            <mxPoint x="-415" y="480" as="sourcePoint" />
            <mxPoint x="-415" y="640" as="targetPoint" />
          </mxGeometry>
        </mxCell>
        <mxCell id="BwAWwdijLhmff7g70wNX-34" value="&lt;font style=&quot;font-size: 24px&quot;&gt;TComment&lt;/font&gt;" style="text;html=1;align=center;verticalAlign=middle;resizable=0;points=[];autosize=1;strokeColor=none;" vertex="1" parent="WIyWlLk6GJQsqaUBKTNV-1">
          <mxGeometry x="-680" y="820" width="130" height="20" as="geometry" />
        </mxCell>
        <mxCell id="BwAWwdijLhmff7g70wNX-39" value="" style="endArrow=none;html=1;strokeColor=#FF8000;entryX=0.5;entryY=0;entryDx=0;entryDy=0;startArrow=none;" edge="1" parent="WIyWlLk6GJQsqaUBKTNV-1" source="9fOPiK6Cyf-GxQi1RAT0-10" target="BwAWwdijLhmff7g70wNX-34">
          <mxGeometry width="50" height="50" relative="1" as="geometry">
            <mxPoint x="-415" y="680" as="sourcePoint" />
            <mxPoint x="-615" y="930" as="targetPoint" />
            <Array as="points">
              <mxPoint x="-415" y="720" />
              <mxPoint x="-615" y="720" />
            </Array>
          </mxGeometry>
        </mxCell>
        <mxCell id="BwAWwdijLhmff7g70wNX-41" value="" style="endArrow=classic;html=1;exitX=1;exitY=0.5;exitDx=0;exitDy=0;startArrow=none;" edge="1" parent="WIyWlLk6GJQsqaUBKTNV-1" source="BwAWwdijLhmff7g70wNX-42">
          <mxGeometry width="50" height="50" relative="1" as="geometry">
            <mxPoint x="620" y="690" as="sourcePoint" />
            <mxPoint x="800" y="660" as="targetPoint" />
          </mxGeometry>
        </mxCell>
        <mxCell id="BwAWwdijLhmff7g70wNX-42" value="&lt;font style=&quot;font-size: 24px&quot;&gt;TEmpty&lt;/font&gt;" style="text;html=1;align=center;verticalAlign=middle;resizable=0;points=[];autosize=1;strokeColor=none;" vertex="1" parent="WIyWlLk6GJQsqaUBKTNV-1">
          <mxGeometry x="630" y="650" width="100" height="20" as="geometry" />
        </mxCell>
        <mxCell id="BwAWwdijLhmff7g70wNX-43" value="" style="endArrow=none;html=1;exitX=1;exitY=0.5;exitDx=0;exitDy=0;" edge="1" parent="WIyWlLk6GJQsqaUBKTNV-1" source="9fOPiK6Cyf-GxQi1RAT0-5" target="BwAWwdijLhmff7g70wNX-42">
          <mxGeometry width="50" height="50" relative="1" as="geometry">
            <mxPoint x="590" y="660" as="sourcePoint" />
            <mxPoint x="740" y="660" as="targetPoint" />
          </mxGeometry>
        </mxCell>
        <mxCell id="BwAWwdijLhmff7g70wNX-46" value="&lt;font style=&quot;font-size: 24px&quot;&gt;TEmpty&lt;/font&gt;" style="text;html=1;align=center;verticalAlign=middle;resizable=0;points=[];autosize=1;strokeColor=none;" vertex="1" parent="WIyWlLk6GJQsqaUBKTNV-1">
          <mxGeometry x="-10" y="1120" width="100" height="20" as="geometry" />
        </mxCell>
        <mxCell id="BwAWwdijLhmff7g70wNX-47" value="" style="endArrow=none;html=1;exitX=0.5;exitY=1;exitDx=0;exitDy=0;strokeColor=#FF8000;" edge="1" parent="WIyWlLk6GJQsqaUBKTNV-1" source="9fOPiK6Cyf-GxQi1RAT0-65" target="BwAWwdijLhmff7g70wNX-46">
          <mxGeometry width="50" height="50" relative="1" as="geometry">
            <mxPoint x="-615" y="920" as="sourcePoint" />
            <mxPoint x="-235" y="1000" as="targetPoint" />
            <Array as="points" />
          </mxGeometry>
        </mxCell>
        <mxCell id="BwAWwdijLhmff7g70wNX-55" value="&lt;font style=&quot;font-size: 24px&quot;&gt;TComment&lt;/font&gt;" style="text;html=1;align=center;verticalAlign=middle;resizable=0;points=[];autosize=1;strokeColor=none;" vertex="1" parent="WIyWlLk6GJQsqaUBKTNV-1">
          <mxGeometry x="300" y="820" width="130" height="20" as="geometry" />
        </mxCell>
        <mxCell id="BwAWwdijLhmff7g70wNX-56" value="" style="endArrow=none;html=1;strokeColor=#FF8000;entryX=0.462;entryY=0;entryDx=0;entryDy=0;entryPerimeter=0;" edge="1" parent="WIyWlLk6GJQsqaUBKTNV-1" target="BwAWwdijLhmff7g70wNX-55">
          <mxGeometry width="50" height="50" relative="1" as="geometry">
            <mxPoint x="530" y="480" as="sourcePoint" />
            <mxPoint x="360" y="610" as="targetPoint" />
            <Array as="points">
              <mxPoint x="530" y="520" />
              <mxPoint x="361" y="520" />
            </Array>
          </mxGeometry>
        </mxCell>
        <mxCell id="BwAWwdijLhmff7g70wNX-58" value="&lt;font style=&quot;font-size: 24px&quot;&gt;TIdent&lt;/font&gt;" style="text;html=1;align=center;verticalAlign=middle;resizable=0;points=[];autosize=1;strokeColor=none;" vertex="1" parent="WIyWlLk6GJQsqaUBKTNV-1">
          <mxGeometry x="-350" y="340" width="80" height="20" as="geometry" />
        </mxCell>
        <mxCell id="BwAWwdijLhmff7g70wNX-61" value="" style="edgeStyle=orthogonalEdgeStyle;rounded=1;orthogonalLoop=1;jettySize=auto;html=1;entryX=0.4;entryY=0.1;entryDx=0;entryDy=0;strokeColor=#00FF00;startArrow=none;endArrow=none;entryPerimeter=0;" edge="1" parent="WIyWlLk6GJQsqaUBKTNV-1" target="BwAWwdijLhmff7g70wNX-58">
          <mxGeometry relative="1" as="geometry">
            <mxPoint x="-355" y="460" as="targetPoint" />
            <mxPoint x="280" y="80" as="sourcePoint" />
            <Array as="points">
              <mxPoint x="-313" y="80" />
              <mxPoint x="-313" y="342" />
            </Array>
          </mxGeometry>
        </mxCell>
        <mxCell id="BwAWwdijLhmff7g70wNX-64" value="&lt;font style=&quot;font-size: 24px&quot;&gt;TIdent&lt;/font&gt;" style="text;html=1;align=center;verticalAlign=middle;resizable=0;points=[];autosize=1;strokeColor=none;" vertex="1" parent="WIyWlLk6GJQsqaUBKTNV-1">
          <mxGeometry x="640" y="340" width="80" height="20" as="geometry" />
        </mxCell>
        <mxCell id="BwAWwdijLhmff7g70wNX-68" value="" style="edgeStyle=orthogonalEdgeStyle;rounded=1;orthogonalLoop=1;jettySize=auto;html=1;strokeColor=#00FF00;endArrow=none;" edge="1" parent="WIyWlLk6GJQsqaUBKTNV-1">
          <mxGeometry relative="1" as="geometry">
            <mxPoint x="280" y="80" as="sourcePoint" />
            <Array as="points">
              <mxPoint x="680" y="80" />
              <mxPoint x="680" y="336" />
            </Array>
            <mxPoint x="680" y="336" as="targetPoint" />
          </mxGeometry>
        </mxCell>
        <mxCell id="BwAWwdijLhmff7g70wNX-72" value="&lt;span style=&quot;font-size: 24px&quot;&gt;TIdent&lt;/span&gt;" style="text;html=1;align=center;verticalAlign=middle;resizable=0;points=[];autosize=1;strokeColor=none;" vertex="1" parent="WIyWlLk6GJQsqaUBKTNV-1">
          <mxGeometry x="245" y="340" width="80" height="20" as="geometry" />
        </mxCell>
        <mxCell id="BwAWwdijLhmff7g70wNX-73" value="" style="edgeStyle=orthogonalEdgeStyle;rounded=1;orthogonalLoop=1;jettySize=auto;html=1;strokeColor=#00FF00;endArrow=none;" edge="1" parent="WIyWlLk6GJQsqaUBKTNV-1" source="9fOPiK6Cyf-GxQi1RAT0-40" target="BwAWwdijLhmff7g70wNX-72">
          <mxGeometry relative="1" as="geometry">
            <Array as="points">
              <mxPoint x="280" y="260" />
              <mxPoint x="280" y="260" />
            </Array>
            <mxPoint x="280" y="-20" as="sourcePoint" />
            <mxPoint x="285" y="350" as="targetPoint" />
          </mxGeometry>
        </mxCell>
        <mxCell id="BwAWwdijLhmff7g70wNX-74" value="&lt;font style=&quot;font-size: 24px&quot;&gt;TComment&lt;/font&gt;" style="text;html=1;align=center;verticalAlign=middle;resizable=0;points=[];autosize=1;strokeColor=none;" vertex="1" parent="WIyWlLk6GJQsqaUBKTNV-1">
          <mxGeometry x="-25" y="820" width="130" height="20" as="geometry" />
        </mxCell>
        <mxCell id="BwAWwdijLhmff7g70wNX-75" value="" style="endArrow=none;html=1;strokeColor=#FF8000;exitX=0.5;exitY=1;exitDx=0;exitDy=0;" edge="1" parent="WIyWlLk6GJQsqaUBKTNV-1" source="9fOPiK6Cyf-GxQi1RAT0-17" target="BwAWwdijLhmff7g70wNX-74">
          <mxGeometry width="50" height="50" relative="1" as="geometry">
            <mxPoint x="180" y="490" as="sourcePoint" />
            <mxPoint x="80" y="840" as="targetPoint" />
            <Array as="points">
              <mxPoint x="180" y="520" />
              <mxPoint x="40" y="520" />
            </Array>
          </mxGeometry>
        </mxCell>
        <mxCell id="BwAWwdijLhmff7g70wNX-76" value="" style="endArrow=classic;html=1;strokeColor=#FF8000;exitX=0.469;exitY=0;exitDx=0;exitDy=0;entryX=0.25;entryY=0;entryDx=0;entryDy=0;startArrow=none;exitPerimeter=0;" edge="1" parent="WIyWlLk6GJQsqaUBKTNV-1" source="BwAWwdijLhmff7g70wNX-79" target="WIyWlLk6GJQsqaUBKTNV-3">
          <mxGeometry width="50" height="50" relative="1" as="geometry">
            <mxPoint x="390" y="-170" as="sourcePoint" />
            <mxPoint x="700" y="-460" as="targetPoint" />
            <Array as="points">
              <mxPoint x="600" y="-440" />
              <mxPoint x="770" y="-440" />
            </Array>
          </mxGeometry>
        </mxCell>
        <mxCell id="BwAWwdijLhmff7g70wNX-79" value="&lt;font style=&quot;font-size: 24px&quot;&gt;TComment&lt;/font&gt;" style="text;html=1;align=center;verticalAlign=middle;resizable=0;points=[];autosize=1;strokeColor=none;" vertex="1" parent="WIyWlLk6GJQsqaUBKTNV-1">
          <mxGeometry x="540" y="-400" width="130" height="20" as="geometry" />
        </mxCell>
        <mxCell id="BwAWwdijLhmff7g70wNX-82" value="" style="endArrow=none;html=1;strokeColor=#FF8000;exitX=0;exitY=0.5;exitDx=0;exitDy=0;entryX=0.469;entryY=1.25;entryDx=0;entryDy=0;entryPerimeter=0;" edge="1" parent="WIyWlLk6GJQsqaUBKTNV-1" source="WIyWlLk6GJQsqaUBKTNV-3" target="BwAWwdijLhmff7g70wNX-79">
          <mxGeometry width="50" height="50" relative="1" as="geometry">
            <mxPoint x="740" y="-340" as="sourcePoint" />
            <mxPoint x="770" y="-360" as="targetPoint" />
            <Array as="points">
              <mxPoint x="601" y="-340" />
            </Array>
          </mxGeometry>
        </mxCell>
      </root>
    </mxGraphModel>
  </diagram>
</mxfile>
